<?xml version="1.0" encoding="UTF-8"?>
<svg id="Layer_1" data-name="Layer 1" xmlns="http://www.w3.org/2000/svg" version="1.1" viewBox="0 0 77.7 40">
  <defs>
    <style>
      .cls-1 {
        fill: #142a48;
      }

      .cls-1, .cls-2 {
        stroke-width: 0px;
      }

      .cls-2 {
        fill: #4dcfab;
      }
    </style>
  </defs>
  <g>
    <path class="cls-1" d="M36.5,12.7h2.6l1.7,4.2c.2.6.4,1.2.6,1.8h0c.2-.6.4-1.2.6-1.8l1.7-4.2h2.6v9.5h-2.2v-3.5c0-.9.2-2.3.3-3.2h0l-.9,2.3-1.5,3.7h-1.3l-1.5-3.7-.8-2.3h0c.1.9.3,2.3.3,3.2v3.5h-2.1v-9.5Z"/>
    <path class="cls-1" d="M51,14.5h-2.9v-1.8h8.2v1.8h-2.9v7.7h-2.4v-7.7Z"/>
    <path class="cls-1" d="M56.9,21l1.4-1.5c.8.6,1.7,1,2.6,1s1.5-.4,1.5-.9-.6-.8-1.5-1.1l-1.4-.5c-1.1-.4-2.1-1.2-2.1-2.6s1.6-2.8,3.8-2.8,2.5.4,3.4,1.3l-1.2,1.4c-.7-.5-1.4-.7-2.2-.7s-1.4.3-1.4.9.7.8,1.6,1.1l1.4.5c1.3.5,2.1,1.2,2.1,2.6s-1.5,3-4,3-2.8-.5-3.9-1.4Z"/>
  </g>
  <g>
    <path class="cls-1" d="M12.9,28.8h.8l.7,2c0,.3.2.5.3.8h0c0-.3.2-.5.3-.8l.7-2h.8v4.1h-.7v-1.9c0-.4,0-.9,0-1.3h0l-.3.9-.7,1.8h-.4l-.7-1.8-.3-.9h0c0,.4,0,.9,0,1.3v1.9h-.7v-4.1Z"/>
    <path class="cls-1" d="M17.3,34.1v-.6c.2,0,.3,0,.4,0,.3,0,.5-.2.6-.5v-.2c0,0-1.2-3-1.2-3h.7l.5,1.5c0,.3.2.6.3.9h0c0-.3.2-.6.2-.9l.5-1.5h.7l-1.1,3.2c-.3.7-.6,1.1-1.3,1.1s-.3,0-.4,0Z"/>
    <path class="cls-1" d="M22.7,29.4h-1.2v-.6h3.1v.6h-1.2v3.5h-.7v-3.5Z"/>
    <path class="cls-1" d="M24.6,31.3c0-1,.7-1.6,1.4-1.6s1.3.6,1.3,1.5,0,.3,0,.3h-2c0,.5.4.9.9.9s.5,0,.7-.2l.2.4c-.3.2-.7.3-1.1.3-.9,0-1.5-.6-1.5-1.6ZM26.7,31c0-.5-.2-.8-.6-.8s-.7.3-.7.8h1.4Z"/>
    <path class="cls-1" d="M27.8,32c0-.7.5-1,1.8-1.1,0-.3-.1-.6-.6-.6s-.6.1-.9.3l-.3-.5c.3-.2.8-.4,1.3-.4.8,0,1.1.5,1.1,1.3v1.8h-.6v-.3h0c-.3.2-.6.4-1,.4-.5,0-.9-.4-.9-.9ZM29.6,32v-.7c-.8.1-1.1.3-1.1.6s.2.4.4.4.4-.1.7-.3Z"/>
    <path class="cls-1" d="M30.9,31.3c0-1,.7-1.6,1.5-1.6s.7.2.9.3l-.4.5c-.2-.1-.3-.2-.5-.2-.5,0-.8.4-.8,1s.3,1,.8,1,.5-.1.6-.3l.3.5c-.3.3-.7.4-1,.4-.8,0-1.5-.6-1.5-1.6Z"/>
    <path class="cls-1" d="M34,28.5h.7v1.7c.2-.2.5-.5,1-.5.7,0,.9.4.9,1.2v1.9h-.7v-1.8c0-.5-.1-.7-.5-.7s-.4.1-.7.4v2.1h-.7v-4.4Z"/>
    <path class="cls-1" d="M37.5,28.9c0-.2.2-.4.4-.4s.4.2.4.4-.2.4-.4.4-.4-.2-.4-.4ZM37.5,29.8h.7v3.1h-.7v-3.1Z"/>
    <path class="cls-1" d="M39.2,29.8h.6v.4h0c.3-.3.6-.5,1-.5.7,0,.9.4.9,1.2v1.9h-.7v-1.8c0-.5-.1-.7-.5-.7s-.4.1-.7.4v2.1h-.7v-3.1Z"/>
    <path class="cls-1" d="M42.5,33.4c0-.3.2-.5.4-.7h0c-.2-.1-.3-.3-.3-.5s.2-.4.3-.6h0c-.2-.2-.4-.5-.4-.8,0-.7.6-1.1,1.2-1.1s.3,0,.5,0h1.1v.5h-.6c.1.1.2.3.2.5,0,.7-.5,1-1.2,1s-.3,0-.4,0c0,0-.2.2-.2.3s.1.3.5.3h.5c.7,0,1.1.2,1.1.8s-.6,1.1-1.6,1.1-1.3-.3-1.3-.8ZM44.7,33.3c0-.2-.2-.3-.5-.3h-.4c-.2,0-.3,0-.4,0-.2.1-.2.3-.2.4,0,.3.3.4.8.4s.8-.2.8-.5ZM44.3,30.8c0-.4-.2-.6-.5-.6s-.5.2-.5.6.2.6.5.6.5-.2.5-.6Z"/>
    <path class="cls-1" d="M47,32.3l.4-.5c.3.3.7.5,1.1.5s.7-.2.7-.5-.3-.4-.6-.6l-.6-.2c-.4-.2-.8-.5-.8-1.1s.6-1.2,1.4-1.2.9.2,1.3.5l-.4.5c-.3-.2-.5-.4-.9-.4s-.6.2-.6.5.3.4.7.6l.6.2c.5.2.8.5.8,1.1s-.6,1.2-1.5,1.2-1.1-.2-1.5-.6Z"/>
    <path class="cls-1" d="M50.6,28.5h.7v1.7c.2-.2.5-.5,1-.5.7,0,.9.4.9,1.2v1.9h-.7v-1.8c0-.5-.1-.7-.5-.7s-.4.1-.7.4v2.1h-.7v-4.4Z"/>
    <path class="cls-1" d="M53.9,31.3c0-1,.7-1.6,1.4-1.6s1.3.6,1.3,1.5,0,.3,0,.3h-2c0,.5.4.9.9.9s.5,0,.7-.2l.2.4c-.3.2-.7.3-1.1.3-.9,0-1.5-.6-1.5-1.6ZM56,31c0-.5-.2-.8-.6-.8s-.7.3-.7.8h1.4Z"/>
    <path class="cls-1" d="M57.1,31.3c0-1,.7-1.6,1.4-1.6s1.3.6,1.3,1.5,0,.3,0,.3h-2c0,.5.4.9.9.9s.5,0,.7-.2l.2.4c-.3.2-.7.3-1.1.3-.9,0-1.5-.6-1.5-1.6ZM59.2,31c0-.5-.2-.8-.6-.8s-.7.3-.7.8h1.4Z"/>
    <path class="cls-1" d="M60.5,31.8v-1.5h-.4v-.5h.5s0-.9,0-.9h.6v.8h.8v.6h-.8v1.5c0,.4.1.5.4.5s.2,0,.3,0v.5c0,0-.3.1-.5.1-.7,0-1-.4-1-1.1Z"/>
    <path class="cls-1" d="M62.3,32.5l.3-.5c.3.2.5.3.9.3s.5-.2.5-.4-.3-.4-.7-.5c-.4-.2-.9-.4-.9-.9s.4-.9,1.1-.9.8.2,1,.4l-.3.4c-.2-.2-.4-.3-.7-.3s-.5.1-.5.3.3.3.6.5c.4.2.9.4.9.9s-.4,1-1.2,1-.9-.2-1.2-.4Z"/>
  </g>
  <g>
    <path class="cls-2" d="M17.7,25.2l-4.7-1.5c-.4-.1-.7-.5-.7-1V6.2c0-.5.6-.9,1-.9,1.3.1,8.8,1.9,9.3,5v10.1s-2.2-2.9-4-2.9-.5.3-.5.5v7c0,.2-.2.3-.4.3Z"/>
    <path class="cls-2" d="M27.6,25.2l4.7-1.5c.4-.1.7-.5.7-1V6.2c0-.5-.6-.9-1-.9-1.3.1-8.8,1.9-9.3,5v10.1s2.2-2.9,4-2.9.5.3.5.5v7c0,.2.2.3.4.3Z"/>
  </g>
</svg>